<mxfile host="app.diagrams.net" modified="2024-04-08T18:28:25.020Z" agent="Mozilla/5.0 (Windows NT 10.0; Win64; x64) AppleWebKit/537.36 (KHTML, like Gecko) Chrome/123.0.0.0 Safari/537.36" etag="AZhavBlcwrIx8HoXqGye" version="24.2.2" type="device">
  <diagram name="Page-1" id="JrxcdcEKGYIX0ZXLurjj">
    <mxGraphModel dx="712" dy="786" grid="1" gridSize="10" guides="1" tooltips="1" connect="1" arrows="1" fold="1" page="1" pageScale="1" pageWidth="850" pageHeight="1100" math="0" shadow="0">
      <root>
        <mxCell id="0" />
        <mxCell id="1" parent="0" />
        <mxCell id="657GbngwZFiznyEGw8mH-1" value="Student" style="rounded=0;whiteSpace=wrap;html=1;" vertex="1" parent="1">
          <mxGeometry x="40" y="160" width="120" height="60" as="geometry" />
        </mxCell>
        <mxCell id="657GbngwZFiznyEGw8mH-4" value="" style="rounded=0;whiteSpace=wrap;html=1;rotation=90;" vertex="1" parent="1">
          <mxGeometry x="-110.16" y="482.67" width="420.31" height="15" as="geometry" />
        </mxCell>
        <mxCell id="657GbngwZFiznyEGw8mH-6" value="" style="endArrow=none;dashed=1;html=1;rounded=0;fontSize=12;startSize=8;endSize=8;curved=1;" edge="1" parent="1">
          <mxGeometry width="50" height="50" relative="1" as="geometry">
            <mxPoint x="100" y="280" as="sourcePoint" />
            <mxPoint x="100" y="220" as="targetPoint" />
          </mxGeometry>
        </mxCell>
        <mxCell id="657GbngwZFiznyEGw8mH-8" value="Student Directory" style="rounded=0;whiteSpace=wrap;html=1;" vertex="1" parent="1">
          <mxGeometry x="270" y="160" width="120" height="60" as="geometry" />
        </mxCell>
        <mxCell id="657GbngwZFiznyEGw8mH-9" value="" style="endArrow=none;dashed=1;html=1;rounded=0;fontSize=12;startSize=8;endSize=8;curved=1;" edge="1" parent="1">
          <mxGeometry width="50" height="50" relative="1" as="geometry">
            <mxPoint x="330" y="280" as="sourcePoint" />
            <mxPoint x="330" y="220" as="targetPoint" />
          </mxGeometry>
        </mxCell>
        <mxCell id="657GbngwZFiznyEGw8mH-10" value="" style="rounded=0;whiteSpace=wrap;html=1;rotation=90;" vertex="1" parent="1">
          <mxGeometry x="120" y="482.5" width="420" height="15" as="geometry" />
        </mxCell>
        <mxCell id="657GbngwZFiznyEGw8mH-14" value="" style="endArrow=classic;html=1;rounded=0;fontSize=12;startSize=8;endSize=8;curved=1;" edge="1" parent="1">
          <mxGeometry width="50" height="50" relative="1" as="geometry">
            <mxPoint x="110" y="300" as="sourcePoint" />
            <mxPoint x="320" y="300" as="targetPoint" />
          </mxGeometry>
        </mxCell>
        <UserObject label="input command" placeholders="1" name="Variable" id="657GbngwZFiznyEGw8mH-17">
          <mxCell style="text;html=1;strokeColor=none;fillColor=none;align=center;verticalAlign=middle;whiteSpace=wrap;overflow=hidden;" vertex="1" parent="1">
            <mxGeometry x="170" y="270" width="80" height="30" as="geometry" />
          </mxCell>
        </UserObject>
        <mxCell id="657GbngwZFiznyEGw8mH-18" value="" style="endArrow=classic;html=1;rounded=0;fontSize=12;startSize=8;endSize=8;curved=1;" edge="1" parent="1">
          <mxGeometry width="50" height="50" relative="1" as="geometry">
            <mxPoint x="110" y="400" as="sourcePoint" />
            <mxPoint x="320" y="400" as="targetPoint" />
          </mxGeometry>
        </mxCell>
        <UserObject label="input Student ID &amp;amp; name" placeholders="1" name="Variable" id="657GbngwZFiznyEGw8mH-19">
          <mxCell style="text;html=1;strokeColor=none;fillColor=none;align=center;verticalAlign=middle;whiteSpace=wrap;overflow=hidden;" vertex="1" parent="1">
            <mxGeometry x="120" y="380" width="180" height="20" as="geometry" />
          </mxCell>
        </UserObject>
        <mxCell id="657GbngwZFiznyEGw8mH-24" value="" style="endArrow=block;dashed=1;endFill=0;endSize=12;html=1;rounded=0;fontSize=12;curved=1;exitX=0.321;exitY=1.233;exitDx=0;exitDy=0;exitPerimeter=0;" edge="1" parent="1">
          <mxGeometry width="160" relative="1" as="geometry">
            <mxPoint x="317.0050000000001" y="350.0000000000001" as="sourcePoint" />
            <mxPoint x="110" y="350" as="targetPoint" />
          </mxGeometry>
        </mxCell>
        <UserObject label="Command: 1" placeholders="1" name="Variable" id="657GbngwZFiznyEGw8mH-27">
          <mxCell style="text;html=1;strokeColor=none;fillColor=none;align=center;verticalAlign=middle;whiteSpace=wrap;overflow=hidden;" vertex="1" parent="1">
            <mxGeometry x="160" y="330" width="100" height="20" as="geometry" />
          </mxCell>
        </UserObject>
        <mxCell id="657GbngwZFiznyEGw8mH-30" style="edgeStyle=none;curved=1;rounded=0;orthogonalLoop=1;jettySize=auto;html=1;exitX=0.25;exitY=0;exitDx=0;exitDy=0;fontSize=12;startSize=8;endSize=8;" edge="1" parent="1" source="657GbngwZFiznyEGw8mH-19" target="657GbngwZFiznyEGw8mH-19">
          <mxGeometry relative="1" as="geometry" />
        </mxCell>
        <mxCell id="657GbngwZFiznyEGw8mH-31" value="" style="endArrow=block;dashed=1;endFill=0;endSize=12;html=1;rounded=0;fontSize=12;curved=1;exitX=0.643;exitY=1.033;exitDx=0;exitDy=0;exitPerimeter=0;" edge="1" parent="1">
          <mxGeometry width="160" relative="1" as="geometry">
            <mxPoint x="314.2550000000001" y="450.03999999999996" as="sourcePoint" />
            <mxPoint x="105.75" y="450" as="targetPoint" />
          </mxGeometry>
        </mxCell>
        <UserObject label="Student added" placeholders="1" name="Variable" id="657GbngwZFiznyEGw8mH-32">
          <mxCell style="text;html=1;strokeColor=none;fillColor=none;align=center;verticalAlign=middle;whiteSpace=wrap;overflow=hidden;" vertex="1" parent="1">
            <mxGeometry x="120" y="427.5" width="180" height="20" as="geometry" />
          </mxCell>
        </UserObject>
        <mxCell id="657GbngwZFiznyEGw8mH-34" value="" style="endArrow=classic;html=1;rounded=0;fontSize=12;startSize=8;endSize=8;curved=1;" edge="1" parent="1">
          <mxGeometry width="50" height="50" relative="1" as="geometry">
            <mxPoint x="110" y="500" as="sourcePoint" />
            <mxPoint x="320" y="500" as="targetPoint" />
          </mxGeometry>
        </mxCell>
        <UserObject label="input command" placeholders="1" name="Variable" id="657GbngwZFiznyEGw8mH-35">
          <mxCell style="text;html=1;strokeColor=none;fillColor=none;align=center;verticalAlign=middle;whiteSpace=wrap;overflow=hidden;" vertex="1" parent="1">
            <mxGeometry x="170" y="470" width="80" height="30" as="geometry" />
          </mxCell>
        </UserObject>
        <mxCell id="657GbngwZFiznyEGw8mH-36" value="" style="endArrow=block;dashed=1;endFill=0;endSize=12;html=1;rounded=0;fontSize=12;curved=1;exitX=0.321;exitY=1.233;exitDx=0;exitDy=0;exitPerimeter=0;" edge="1" parent="1">
          <mxGeometry width="160" relative="1" as="geometry">
            <mxPoint x="313.5050000000001" y="550.0000000000001" as="sourcePoint" />
            <mxPoint x="106.5" y="550" as="targetPoint" />
          </mxGeometry>
        </mxCell>
        <UserObject label="Command: 2" placeholders="1" name="Variable" id="657GbngwZFiznyEGw8mH-37">
          <mxCell style="text;html=1;strokeColor=none;fillColor=none;align=center;verticalAlign=middle;whiteSpace=wrap;overflow=hidden;" vertex="1" parent="1">
            <mxGeometry x="160" y="530" width="100" height="20" as="geometry" />
          </mxCell>
        </UserObject>
        <mxCell id="657GbngwZFiznyEGw8mH-39" value="" style="endArrow=classic;html=1;rounded=0;fontSize=12;startSize=8;endSize=8;curved=1;" edge="1" parent="1">
          <mxGeometry width="50" height="50" relative="1" as="geometry">
            <mxPoint x="110" y="600" as="sourcePoint" />
            <mxPoint x="320" y="600" as="targetPoint" />
          </mxGeometry>
        </mxCell>
        <UserObject label="input Student ID or name" placeholders="1" name="Variable" id="657GbngwZFiznyEGw8mH-40">
          <mxCell style="text;html=1;strokeColor=none;fillColor=none;align=center;verticalAlign=middle;whiteSpace=wrap;overflow=hidden;" vertex="1" parent="1">
            <mxGeometry x="130" y="580" width="180" height="20" as="geometry" />
          </mxCell>
        </UserObject>
        <UserObject label="Display Student ID &amp;amp; name" placeholders="1" name="Variable" id="657GbngwZFiznyEGw8mH-41">
          <mxCell style="text;html=1;strokeColor=none;fillColor=none;align=center;verticalAlign=middle;whiteSpace=wrap;overflow=hidden;" vertex="1" parent="1">
            <mxGeometry x="130.15" y="630" width="180" height="20" as="geometry" />
          </mxCell>
        </UserObject>
        <mxCell id="657GbngwZFiznyEGw8mH-42" value="" style="endArrow=block;dashed=1;endFill=0;endSize=12;html=1;rounded=0;fontSize=12;curved=1;exitX=0.643;exitY=1.033;exitDx=0;exitDy=0;exitPerimeter=0;" edge="1" parent="1">
          <mxGeometry width="160" relative="1" as="geometry">
            <mxPoint x="324.2550000000001" y="650.04" as="sourcePoint" />
            <mxPoint x="110" y="650" as="targetPoint" />
          </mxGeometry>
        </mxCell>
      </root>
    </mxGraphModel>
  </diagram>
</mxfile>
